<?xml version="1.0" encoding="UTF-8"?>
<svg version="1.1" xmlns="http://www.w3.org/2000/svg" width="64" height="64">
<path d="M0 0 C5.29276443 3.39137217 9.20819749 8.51675822 11.859375 14.19140625 C11.859375 15.51140625 11.859375 16.83140625 11.859375 18.19140625 C12.58125 18.41828125 13.303125 18.64515625 14.046875 18.87890625 C19.64152098 21.48974104 22.51038194 25.62093699 24.859375 31.19140625 C25.1875 34.41796875 25.1875 34.41796875 25.109375 37.81640625 C25.06876953 39.63591797 25.06876953 39.63591797 25.02734375 41.4921875 C24.33614491 56.71463634 24.33614491 56.71463634 22.859375 58.19140625 C18.54280087 58.73348765 14.201678 58.94808755 9.859375 59.19140625 C8.250625 59.29195312 8.250625 59.29195312 6.609375 59.39453125 C-1.42175564 59.68135734 -6.51402326 58.27401773 -12.640625 53.06640625 C-14.140625 51.19140625 -14.140625 51.19140625 -14.140625 49.19140625 C-14.96304687 49.13082031 -15.78546875 49.07023437 -16.6328125 49.0078125 C-22.05473068 48.60085559 -27.47589344 48.18579478 -32.890625 47.69140625 C-33.68984375 47.61921875 -34.4890625 47.54703125 -35.3125 47.47265625 C-37.140625 47.19140625 -37.140625 47.19140625 -38.140625 46.19140625 C-38.70037306 41.20895745 -38.91170596 36.19844924 -39.140625 31.19140625 C-39.17607422 30.48274414 -39.21152344 29.77408203 -39.24804688 29.04394531 C-39.97106893 12.98252671 -39.97106893 12.98252671 -35.140625 7.19140625 C-25.70204229 -2.88187508 -12.75566518 -6.68043048 0 0 Z " fill="#49D0F8" transform="translate(39.140625,3.80859375)"/>
<path d="M0 0 C5.47731542 2.01506587 8.62697002 4.68095893 11.6328125 9.7578125 C13.14561689 13.34532006 13.3390369 15.75189502 13.25 19.625 C13.22292969 20.83800781 13.19585937 22.05101563 13.16796875 23.30078125 C12.47676991 38.52323009 12.47676991 38.52323009 11 40 C6.68342587 40.5420814 2.342303 40.7566813 -2 41 C-3.0725 41.06703125 -4.145 41.1340625 -5.25 41.203125 C-13.28113064 41.48995109 -18.37339826 40.08261148 -24.5 34.875 C-26 33 -26 33 -26 31 C-25.2265625 30.85304688 -24.453125 30.70609375 -23.65625 30.5546875 C-15.53923476 28.8067164 -9.38340301 26.74522273 -4.4375 19.80859375 C-0.82919398 13.42230213 -0.13706054 7.25174836 0 0 Z " fill="#87E8B6" transform="translate(51,22)"/>
<path d="M0 0 C3.86235664 1.44998771 6.44391351 2.65742535 9 6 C8.62555622 9.18937993 7.55059743 10.81415828 5.27734375 13.015625 C4.73916016 13.54414062 4.20097656 14.07265625 3.64648438 14.6171875 C3.08251953 15.15601563 2.51855469 15.69484375 1.9375 16.25 C1.36966797 16.80429687 0.80183594 17.35859375 0.21679688 17.9296875 C-1.18212469 19.29334214 -2.59019114 20.64760417 -4 22 C-4 19 -4 19 -2.5625 16.0625 C-0.24149027 10.98255417 -0.26202043 5.50242896 0 0 Z M-11 26 C-10.34 26.33 -9.68 26.66 -9 27 C-12.63 30.63 -16.26 34.26 -20 38 C-22.04119788 36.38405168 -24.04072937 34.7143618 -26 33 C-26 32.34 -26 31.68 -26 31 C-25.16855469 30.80664062 -24.33710938 30.61328125 -23.48046875 30.4140625 C-22.39378906 30.15367188 -21.30710937 29.89328125 -20.1875 29.625 C-19.10855469 29.36976562 -18.02960937 29.11453125 -16.91796875 28.8515625 C-13.84466657 28.11267119 -13.84466657 28.11267119 -11 26 Z " fill="#7CE2B4" transform="translate(51,22)"/>
<path d="M0 0 C3.53571429 0.53571429 3.53571429 0.53571429 5 2 C5.125 4.5 5.125 4.5 5 7 C4 8 4 8 1.5 8.125 C-1 8 -1 8 -2 7 C-2.1875 4.5625 -2.1875 4.5625 -2 2 C-1.34 1.34 -0.68 0.68 0 0 Z " fill="#F3FBFE" transform="translate(12,24)"/>
<path d="M0 0 C1.4540625 0.0309375 1.4540625 0.0309375 2.9375 0.0625 C3.5625 2.4375 3.5625 2.4375 3.9375 5.0625 C3.2775 5.7225 2.6175 6.3825 1.9375 7.0625 C-0.6875 6.6875 -0.6875 6.6875 -3.0625 6.0625 C-3.44468767 4.40635343 -3.77645102 2.73792976 -4.0625 1.0625 C-3.0625 0.0625 -3.0625 0.0625 0 0 Z " fill="#F5FBFE" transform="translate(25.0625,24.9375)"/>
<path d="M0 0 C5 2 5 2 7 3 C5.50902342 6.7952131 3.24299151 8.61042731 0 11 C0 7.37 0 3.74 0 0 Z " fill="#58CCA5" transform="translate(51,22)"/>
<path d="M0 0 C0.78375 0.04125 1.5675 0.0825 2.375 0.125 C3 2.5 3 2.5 3.375 5.125 C2.715 5.785 2.055 6.445 1.375 7.125 C-1.25 6.75 -1.25 6.75 -3.625 6.125 C-4.25 4.25 -4.25 4.25 -4.625 2.125 C-2.625 0.125 -2.625 0.125 0 0 Z " fill="#F6FCFE" transform="translate(36.625,24.875)"/>
<path d="M0 0 C-1.98 1.98 -3.96 3.96 -6 6 C-7.9375 5.1875 -7.9375 5.1875 -10 4 C-10.33 3.01 -10.66 2.02 -11 1 C-9.5437328 0.63743142 -8.08488815 0.28520207 -6.625 -0.0625 C-5.40683594 -0.35833984 -5.40683594 -0.35833984 -4.1640625 -0.66015625 C-2 -1 -2 -1 0 0 Z " fill="#6EDAAC" transform="translate(36,52)"/>
</svg>
